<svg width="390" height="157" viewBox="0 0 390 157" fill="none" xmlns="http://www.w3.org/2000/svg">
<g clip-path="url(#clip0_4223_2275)">
<path d="M-41.1448 98.9227C-30.2108 98.9227 -21.3518 89.8346 -21.3021 78.6276L-21.3021 78.5383C-21.1282 57.5666 -4.51593 40.7051 15.8983 40.82L16.0102 40.82C26.9814 40.82 35.8529 31.7063 35.8529 20.4355C35.8529 9.16469 26.9814 0.0510307 16.0102 0.0510312C5.07617 0.0510316 -3.78286 9.11363 -3.83255 20.3206L-3.83255 20.4355C-4.0065 41.3688 -20.6187 58.2431 -41.033 58.1283L-41.1448 58.1283C-52.1161 58.1283 -60.9876 67.2802 -60.9875 78.5383C-60.9875 89.7708 -52.1161 98.9227 -41.1448 98.9227Z" fill="#00619A"/>
<path d="M35.8529 136.616C35.8529 125.357 26.969 116.231 16.0102 116.231C5.05137 116.231 -3.83252 125.358 -3.83252 136.616C-3.83252 147.874 5.05137 157 16.0102 157C26.969 157 35.8529 147.874 35.8529 136.616Z" fill="#00619A"/>
<path d="M73.1652 157C84.1365 157 93.0079 147.886 93.0079 136.616C93.0079 125.345 84.1365 116.231 73.1652 116.231L73.0534 116.231C52.6391 116.346 36.0269 99.4716 35.8529 78.5383L35.8529 78.4234C35.7908 67.2164 26.9442 58.1283 16.0102 58.1283C5.03893 58.1283 -3.83252 67.2803 -3.83252 78.5383C-3.83252 89.7708 5.03893 98.9228 16.0102 98.9228L16.122 98.9228C36.5363 98.8079 53.1485 115.682 53.3225 136.616L53.3225 136.73C53.3846 147.937 62.2312 157 73.1652 157Z" fill="#00619A"/>
<path d="M93.0203 78.6149L93.0203 78.4106L92.9333 78.5383L93.0203 78.6149Z" fill="url(#paint0_linear_4223_2275)"/>
<path d="M93.0203 78.6149L93.0203 78.4106L92.9333 78.5383L93.0203 78.6149Z" fill="url(#paint1_linear_4223_2275)"/>
<path d="M93.0203 78.6149L93.0203 78.4106L92.9333 78.5383L93.0203 78.6149Z" fill="url(#paint2_linear_4223_2275)"/>
<path d="M93.0202 20.4228C93.0202 9.16475 84.1363 0.0383097 73.1774 0.0383101C62.2186 0.0383106 53.3347 9.16475 53.3347 20.4228C53.3347 31.6808 62.2186 40.8073 73.1774 40.8073C84.1363 40.8072 93.0202 31.6808 93.0202 20.4228Z" fill="#00619A"/>
<path d="M187.624 40.8073L187.686 40.8073L187.662 40.7817L187.637 40.8073L187.624 40.8073Z" fill="url(#paint3_linear_4223_2275)"/>
<path d="M187.649 116.257L187.674 116.231L187.612 116.231L187.637 116.257L187.649 116.257Z" fill="url(#paint4_linear_4223_2275)"/>
<path d="M130.333 157C141.304 157 150.2 147.886 150.2 136.616C150.2 125.345 141.292 116.231 130.333 116.231L130.246 116.231C109.869 116.346 93.2441 99.5354 93.0204 78.6276L92.9334 78.5383L93.0204 78.4234C93.2441 57.5156 109.869 40.7051 130.246 40.82L130.333 40.82C141.304 40.82 150.2 31.7064 150.2 20.4355C150.2 9.16473 141.292 0.051072 130.333 0.0510725C119.424 0.0510729 110.54 9.11367 110.49 20.3207L110.49 20.4355C110.316 41.3689 93.7038 58.2432 73.2895 58.1283L73.1777 58.1283C62.2064 58.1283 53.335 67.2803 53.335 78.5383C53.335 89.7708 62.2064 98.9228 73.1777 98.9228L73.2895 98.9228C93.7038 98.8079 110.316 115.682 110.49 136.616L110.49 136.73C110.54 147.937 119.411 157 130.333 157Z" fill="#00619A"/>
<path d="M187.649 116.257L187.674 116.231L187.612 116.231L187.637 116.257L187.649 116.257Z" fill="url(#paint5_linear_4223_2275)"/>
<path d="M224.825 78.6149L224.912 78.5383L224.825 78.4106L224.825 78.6149Z" fill="#00619A"/>
<path d="M187.649 116.257L187.674 116.231L187.612 116.231L187.637 116.257L187.649 116.257Z" fill="url(#paint6_linear_4223_2275)"/>
<path d="M207.343 78.5127C207.343 67.2547 198.459 58.1283 187.5 58.1283C176.541 58.1283 167.657 67.2547 167.657 78.5127C167.657 89.7708 176.541 98.8972 187.5 98.8972C198.459 98.8972 207.343 89.7708 207.343 78.5127Z" fill="#00619A"/>
<path d="M187.512 157C198.446 157 207.305 147.937 207.355 136.73L207.355 136.616C207.529 115.682 224.141 98.8079 244.556 98.9228L244.667 98.9228C255.639 98.9228 264.51 89.7708 264.51 78.5383C264.51 67.3058 255.639 58.1283 244.667 58.1283L244.556 58.1283C224.141 58.2432 207.529 41.3689 207.355 20.4355L207.355 20.3207C207.293 9.11367 198.446 0.0510721 187.512 0.0510725C176.541 0.051073 167.67 9.16473 167.67 20.4355L167.67 20.6142C167.844 41.1136 151.84 57.873 131.935 58.1283L131.761 58.1283C120.877 58.2177 112.055 67.3313 112.055 78.5383C112.055 89.7453 120.877 98.8334 131.761 98.9228L131.935 98.9228C151.84 99.1781 167.831 115.937 167.67 136.437L167.67 136.616C167.67 147.886 176.541 157 187.512 157ZM187.649 116.257L187.624 116.231L187.512 116.231C167.583 115.976 151.617 99.1908 151.778 78.717L151.778 78.3341C151.604 57.8603 167.583 41.0753 187.512 40.82L187.624 40.82L187.649 40.7945L187.674 40.82C208.026 40.7307 224.589 57.5411 224.812 78.4234L224.899 78.5383L224.812 78.6276C224.589 99.5099 208.026 116.32 187.674 116.231L187.649 116.257Z" fill="#00619A"/>
<path d="M187.624 40.8073L187.686 40.8073L187.662 40.7817L187.637 40.8073L187.624 40.8073Z" fill="url(#paint7_linear_4223_2275)"/>
<path d="M187.649 40.7817L187.624 40.8073L187.686 40.8073L187.662 40.7817L187.649 40.7817Z" fill="url(#paint8_linear_4223_2275)"/>
<path d="M224.825 78.6149L224.912 78.5383L224.825 78.4106L224.825 78.6149Z" fill="#00619A"/>
<path d="M281.98 78.6149L282.067 78.5383L281.98 78.4106L281.98 78.6149Z" fill="#00619A"/>
<path d="M224.825 78.6149L224.912 78.5383L224.825 78.4106L224.825 78.6149Z" fill="#00619A"/>
<path d="M244.667 157C255.601 157 264.46 147.937 264.51 136.73L264.51 136.616C264.684 115.682 281.296 98.8079 301.711 98.9228L301.822 98.9228C312.794 98.9228 321.665 89.7708 321.665 78.5383C321.665 67.2675 312.794 58.1283 301.822 58.1283L301.711 58.1283C281.296 58.2432 264.684 41.3689 264.51 20.4355L264.51 20.3207C264.448 9.11367 255.601 0.0510745 244.667 0.051075C233.696 0.0510754 224.825 9.16473 224.825 20.4355C224.825 31.7064 233.696 40.82 244.667 40.82L244.779 40.82C265.156 40.7051 281.756 57.5156 281.98 78.4234L282.067 78.5383L281.98 78.6276C281.756 99.5354 265.156 116.346 244.779 116.231L244.667 116.231C233.696 116.231 224.825 125.345 224.825 136.616C224.825 147.886 233.709 157 244.667 157Z" fill="#00619A"/>
<path d="M281.98 78.6149L282.067 78.5383L281.98 78.4106L281.98 78.6149Z" fill="#00619A"/>
<path d="M301.822 157C312.756 157 321.615 147.937 321.665 136.73L321.665 136.616C321.839 115.682 338.489 98.8079 358.89 98.9228L358.977 98.9228C369.949 98.9228 378.845 89.7708 378.845 78.5383C378.845 67.2675 369.936 58.1283 358.977 58.1283C348.068 58.1283 339.184 67.2164 339.135 78.4234L339.135 78.5383C338.961 99.4716 322.349 116.346 301.934 116.231L301.822 116.231C290.851 116.231 281.98 125.345 281.98 136.616C281.98 147.886 290.851 157 301.822 157Z" fill="#00619A"/>
<path d="M281.98 78.6149L282.067 78.5383L281.98 78.4106L281.98 78.6149Z" fill="#00619A"/>
<path d="M321.678 20.4228C321.678 9.16475 312.794 0.0383097 301.835 0.0383101C290.876 0.0383106 281.992 9.16475 281.992 20.4228C281.992 31.6808 290.876 40.8073 301.835 40.8073C312.794 40.8072 321.678 31.6808 321.678 20.4228Z" fill="#00619A"/>
<path d="M378.845 136.616C378.845 125.357 369.961 116.231 359.002 116.231C348.044 116.231 339.16 125.358 339.16 136.616C339.16 147.874 348.044 157 359.002 157C369.961 157 378.845 147.874 378.845 136.616Z" fill="#00619A"/>
<path d="M416.17 98.9227C427.141 98.9227 436.012 89.7708 436.012 78.5383C436.012 67.3057 427.141 58.1283 416.17 58.1283L416.058 58.1283C395.643 58.2431 379.031 41.3688 378.857 20.4355L378.857 20.3206C378.795 9.11363 369.924 0.051031 358.99 0.0510314C348.056 0.0510319 339.147 9.1647 339.147 20.4355C339.147 31.7063 348.056 40.82 358.99 40.82L359.102 40.82C379.516 40.7051 396.165 57.5794 396.327 78.5383L396.327 78.6276C396.389 89.8346 405.236 98.9227 416.17 98.9227Z" fill="#00619A"/>
</g>
<defs>
<linearGradient id="paint0_linear_4223_2275" x1="92.9706" y1="78.6149" x2="92.9706" y2="78.4106" gradientUnits="userSpaceOnUse">
<stop stop-color="#216D8F"/>
<stop offset="1" stop-color="#1B2050"/>
</linearGradient>
<linearGradient id="paint1_linear_4223_2275" x1="92.9706" y1="78.6149" x2="92.9706" y2="78.4106" gradientUnits="userSpaceOnUse">
<stop stop-color="#216D8F"/>
<stop offset="1" stop-color="#1B2050"/>
</linearGradient>
<linearGradient id="paint2_linear_4223_2275" x1="92.9706" y1="78.6149" x2="92.9706" y2="78.4106" gradientUnits="userSpaceOnUse">
<stop stop-color="#216D8F"/>
<stop offset="1" stop-color="#1B2050"/>
</linearGradient>
<linearGradient id="paint3_linear_4223_2275" x1="187.649" y1="40.8073" x2="187.649" y2="40.7817" gradientUnits="userSpaceOnUse">
<stop stop-color="#216D8F"/>
<stop offset="1" stop-color="#1B2050"/>
</linearGradient>
<linearGradient id="paint4_linear_4223_2275" x1="187.649" y1="116.257" x2="187.649" y2="116.231" gradientUnits="userSpaceOnUse">
<stop stop-color="#216D8F"/>
<stop offset="1" stop-color="#1B2050"/>
</linearGradient>
<linearGradient id="paint5_linear_4223_2275" x1="187.649" y1="116.257" x2="187.649" y2="116.231" gradientUnits="userSpaceOnUse">
<stop stop-color="#216D8F"/>
<stop offset="1" stop-color="#1B2050"/>
</linearGradient>
<linearGradient id="paint6_linear_4223_2275" x1="187.649" y1="116.257" x2="187.649" y2="116.231" gradientUnits="userSpaceOnUse">
<stop stop-color="#216D8F"/>
<stop offset="1" stop-color="#1B2050"/>
</linearGradient>
<linearGradient id="paint7_linear_4223_2275" x1="187.649" y1="40.8073" x2="187.649" y2="40.7817" gradientUnits="userSpaceOnUse">
<stop stop-color="#216D8F"/>
<stop offset="1" stop-color="#1B2050"/>
</linearGradient>
<linearGradient id="paint8_linear_4223_2275" x1="187.649" y1="40.8073" x2="187.649" y2="40.7817" gradientUnits="userSpaceOnUse">
<stop stop-color="#216D8F"/>
<stop offset="1" stop-color="#1B2050"/>
</linearGradient>
<clipPath id="clip0_4223_2275">
<rect width="157" height="497" fill="white" transform="translate(-61 157) rotate(-90)"/>
</clipPath>
</defs>
</svg>
