<svg width="99" height="50" viewBox="0 0 99 50" fill="none" xmlns="http://www.w3.org/2000/svg">
<path d="M92.1264 0H6.87358C3.07741 0 0 3.06979 0 6.85657V43.1434C0 46.9302 3.07741 50 6.87358 50H92.1264C95.9226 50 99 46.9302 99 43.1434V6.85657C99 3.06979 95.9226 0 92.1264 0Z" fill="#216D8F"/>
<path d="M23.953 38.6899L23.9455 38.6989L23.9365 38.6899H23.953Z" fill="white"/>
<path d="M24.0282 25.0037H24.0117L24.0192 24.9963L24.0282 25.0037Z" fill="white"/>
<path d="M37.1032 20.4047H36.7679C32.1709 20.4047 28.4432 16.6877 28.4432 12.1006V12.0826C28.4432 9.7321 26.7485 7.62908 24.4102 7.34857C21.6087 7.01257 19.2298 9.18159 19.2298 11.9101V12.3256C19.2298 16.7882 15.6043 20.4047 11.1307 20.4047H11.1126C8.76528 20.4047 6.66155 22.0817 6.36983 24.4052C6.01946 27.1923 8.17431 29.5698 10.8991 29.5953H10.9397C15.5186 29.5953 19.2313 33.2988 19.2313 37.8664V37.9174C19.2313 40.2619 20.9155 42.3604 23.2493 42.6499C26.0462 42.9964 28.4296 40.8379 28.4462 38.1169V38.0779C28.4462 33.3933 32.2536 29.5953 36.9498 29.5953C39.1393 29.5953 41.1498 28.1418 41.6039 26.0043C42.237 23.0297 39.9783 20.4032 37.1062 20.4032L37.1032 20.4047ZM32.4958 25.0263V25.0007C32.4551 29.7168 28.6041 33.5133 23.8763 33.4953L23.8673 33.5043L23.8583 33.4953H23.8357C19.2568 33.4953 15.5441 29.7918 15.5441 25.2243V24.7983C15.5441 20.2172 19.2659 16.5047 23.8583 16.5047L23.8673 16.4957L23.8763 16.5047C28.6041 16.4867 32.4567 20.2832 32.4958 24.9993V24.9738L32.5213 24.9993L32.4958 25.0248V25.0263Z" fill="white"/>
<path d="M24.0282 25.0037H24.0117L24.0192 24.9963L24.0282 25.0037Z" fill="white"/>
<path d="M24.0192 24.9963L24.0282 25.0037H24.0117L24.0192 24.9963Z" fill="white"/>
<path d="M32.5995 30.1953L32.5739 30.2208V30.1683L32.5995 30.1953Z" fill="white"/>
<path d="M32.5995 30.1953L32.5739 30.2208V30.1683L32.5995 30.1953Z" fill="white"/>
<path d="M32.5995 30.1953L32.5739 30.2208V30.1683L32.5995 30.1953Z" fill="white"/>
<path d="M24.0192 24.2282C23.5906 24.2282 23.2478 24.5732 23.2478 25.0008C23.2478 25.4253 23.5906 25.7703 24.0192 25.7703C24.4477 25.7703 24.7906 25.4253 24.7906 25.0008C24.7906 24.5732 24.4447 24.2282 24.0192 24.2282ZM25.1891 18.0902C20.3937 17.3177 16.317 21.3932 17.0945 26.1768C17.5666 29.0778 19.9065 31.4208 22.8132 31.9038C27.6297 32.7048 31.7439 28.5963 30.9364 23.7902C30.4492 20.8907 28.0988 18.5582 25.1891 18.0887V18.0902ZM17.8403 25.0022C17.8403 22.4867 19.3531 20.3192 21.5185 19.3637C20.4794 20.6387 19.8042 22.6907 19.8042 25.0022C19.8042 27.3138 20.4794 29.3613 21.5185 30.6363C19.3531 29.6808 17.8403 27.5148 17.8403 25.0022ZM24.0177 31.1643C23.2643 31.1643 22.4418 30.6513 21.7591 29.5173C21.0884 28.4028 20.6493 26.8083 20.6493 25.0008C20.6493 23.1902 21.0884 21.5957 21.7591 20.4812C22.4403 19.3472 23.2643 18.8387 24.0177 18.8387C24.7711 18.8387 25.5936 19.3472 26.2718 20.4812C26.9455 21.5957 27.386 23.1902 27.386 25.0008C27.386 26.8068 26.947 28.4013 26.2718 29.5173C25.5936 30.6513 24.7665 31.1643 24.0177 31.1643ZM26.5184 30.6363C27.5575 29.3613 28.2281 27.3138 28.2281 25.0022C28.2281 22.6907 27.5575 20.6387 26.5184 19.3637C28.6838 20.3192 30.1965 22.4852 30.1965 25.0022C30.1965 27.5148 28.6838 29.6823 26.5184 30.6363ZM24.0177 24.2282C23.5891 24.2282 23.2463 24.5732 23.2463 25.0008C23.2463 25.4253 23.5891 25.7703 24.0177 25.7703C24.4462 25.7703 24.7891 25.4253 24.7891 25.0008C24.7891 24.5732 24.4432 24.2282 24.0177 24.2282ZM24.0177 24.2282C23.5891 24.2282 23.2463 24.5732 23.2463 25.0008C23.2463 25.4253 23.5891 25.7703 24.0177 25.7703C24.4462 25.7703 24.7891 25.4253 24.7891 25.0008C24.7891 24.5732 24.4432 24.2282 24.0177 24.2282Z" fill="white"/>
<path d="M50.2872 12.5436L51.7785 16.7658H51.8374L53.3287 12.5436H53.9664L52.1219 17.5593H51.494L49.6495 12.5436H50.2872Z" fill="white"/>
<path d="M54.7488 17.5593V12.5436H57.7804V13.0824H55.3571V14.7772H57.6234V15.316H55.3571V17.0205H57.8197V17.5593H54.7488Z" fill="white"/>
<path d="M62.919 14.111H62.3107C62.2747 13.9363 62.2117 13.7829 62.1218 13.6506C62.0335 13.5184 61.9256 13.4073 61.798 13.3175C61.6721 13.2261 61.5323 13.1575 61.3786 13.1118C61.2249 13.0661 61.0647 13.0432 60.8979 13.0432C60.5937 13.0432 60.3182 13.12 60.0713 13.2735C59.826 13.4269 59.6306 13.6531 59.4851 13.9518C59.3412 14.2506 59.2692 14.6172 59.2692 15.0515C59.2692 15.4858 59.3412 15.8523 59.4851 16.1511C59.6306 16.4499 59.826 16.676 60.0713 16.8295C60.3182 16.983 60.5937 17.0597 60.8979 17.0597C61.0647 17.0597 61.2249 17.0368 61.3786 16.9911C61.5323 16.9454 61.6721 16.8776 61.798 16.7879C61.9256 16.6964 62.0335 16.5846 62.1218 16.4523C62.2117 16.3184 62.2747 16.165 62.3107 15.9919H62.919C62.8732 16.2482 62.7898 16.4776 62.6688 16.6801C62.5478 16.8825 62.3973 17.0548 62.2175 17.1968C62.0376 17.3373 61.8357 17.4442 61.6116 17.5177C61.3893 17.5911 61.1513 17.6279 60.8979 17.6279C60.4695 17.6279 60.0885 17.5234 59.7549 17.3144C59.4213 17.1054 59.1589 16.8083 58.9676 16.4229C58.7762 16.0376 58.6806 15.5805 58.6806 15.0515C58.6806 14.5225 58.7762 14.0653 58.9676 13.68C59.1589 13.2947 59.4213 12.9975 59.7549 12.7885C60.0885 12.5795 60.4695 12.4751 60.8979 12.4751C61.1513 12.4751 61.3893 12.5118 61.6116 12.5853C61.8357 12.6587 62.0376 12.7665 62.2175 12.9085C62.3973 13.049 62.5478 13.2204 62.6688 13.4228C62.7898 13.6237 62.8732 13.8531 62.919 14.111Z" fill="white"/>
<path d="M63.6272 13.0824V12.5436H67.3946V13.0824H65.8151V17.5593H65.2068V13.0824H63.6272Z" fill="white"/>
<path d="M72.3627 15.0515C72.3627 15.5805 72.267 16.0376 72.0757 16.4229C71.8844 16.8083 71.622 17.1054 71.2884 17.3144C70.9548 17.5234 70.5738 17.6279 70.1454 17.6279C69.717 17.6279 69.336 17.5234 69.0024 17.3144C68.6688 17.1054 68.4064 16.8083 68.2151 16.4229C68.0238 16.0376 67.9281 15.5805 67.9281 15.0515C67.9281 14.5225 68.0238 14.0653 68.2151 13.68C68.4064 13.2947 68.6688 12.9975 69.0024 12.7885C69.336 12.5795 69.717 12.4751 70.1454 12.4751C70.5738 12.4751 70.9548 12.5795 71.2884 12.7885C71.622 12.9975 71.8844 13.2947 72.0757 13.68C72.267 14.0653 72.3627 14.5225 72.3627 15.0515ZM71.774 15.0515C71.774 14.6172 71.7013 14.2506 71.5557 13.9518C71.4118 13.6531 71.2164 13.4269 70.9695 13.2735C70.7243 13.12 70.4496 13.0432 70.1454 13.0432C69.8413 13.0432 69.5657 13.12 69.3188 13.2735C69.0736 13.4269 68.8781 13.6531 68.7326 13.9518C68.5887 14.2506 68.5168 14.6172 68.5168 15.0515C68.5168 15.4858 68.5887 15.8523 68.7326 16.1511C68.8781 16.4499 69.0736 16.676 69.3188 16.8295C69.5657 16.983 69.8413 17.0597 70.1454 17.0597C70.4496 17.0597 70.7243 16.983 70.9695 16.8295C71.2164 16.676 71.4118 16.4499 71.5557 16.1511C71.7013 15.8523 71.774 15.4858 71.774 15.0515Z" fill="white"/>
<path d="M73.3855 17.5593V12.5436H75.0828C75.4753 12.5436 75.7974 12.6106 76.0492 12.7445C76.301 12.8767 76.4874 13.0588 76.6084 13.2906C76.7294 13.5224 76.7899 13.7861 76.7899 14.0816C76.7899 14.3772 76.7294 14.6392 76.6084 14.8678C76.4874 15.0964 76.3018 15.276 76.0517 15.4066C75.8015 15.5356 75.4818 15.6001 75.0926 15.6001H73.7191V15.0515H75.073C75.3412 15.0515 75.557 15.0123 75.7205 14.9339C75.8857 14.8555 76.0051 14.7445 76.0786 14.6008C76.1539 14.4555 76.1915 14.2825 76.1915 14.0816C76.1915 13.8808 76.1539 13.7053 76.0786 13.5551C76.0034 13.4049 75.8832 13.289 75.7181 13.2073C75.5529 13.1241 75.3346 13.0824 75.0632 13.0824H73.9938V17.5593H73.3855ZM75.75 15.3062L76.9862 17.5593H76.2798L75.0632 15.3062H75.75Z" fill="white"/>
<path d="M49.8065 22.7695V22.2307H53.5739V22.7695H51.9944V27.2464H51.3861V22.7695H49.8065Z" fill="white"/>
<path d="M54.5127 27.2464V22.2307H56.21C56.6025 22.2307 56.9246 22.2977 57.1764 22.4316C57.4282 22.5638 57.6147 22.7458 57.7357 22.9777C57.8567 23.2095 57.9172 23.4732 57.9172 23.7687C57.9172 24.0643 57.8567 24.3263 57.7357 24.5549C57.6147 24.7835 57.4291 24.9631 57.1789 25.0937C56.9287 25.2227 56.609 25.2872 56.2199 25.2872H54.8463V24.7386H56.2002C56.4684 24.7386 56.6842 24.6994 56.8478 24.621C57.0129 24.5426 57.1323 24.4316 57.2059 24.2879C57.2811 24.1426 57.3187 23.9696 57.3187 23.7687C57.3187 23.5679 57.2811 23.3924 57.2059 23.2422C57.1306 23.092 57.0105 22.9761 56.8453 22.8944C56.6802 22.8112 56.4619 22.7695 56.1904 22.7695H55.121V27.2464H54.5127ZM56.8772 24.9933L58.1134 27.2464H57.407L56.1904 24.9933H56.8772Z" fill="white"/>
<path d="M59.1368 27.2464H58.4991L60.3436 22.2307H60.9715L62.8159 27.2464H62.1782L60.6771 23.0242H60.6379L59.1368 27.2464ZM59.3723 25.2872H61.9428V25.8259H59.3723V25.2872Z" fill="white"/>
<path d="M67.4044 23.7981H66.7962C66.7602 23.6234 66.6972 23.47 66.6073 23.3377C66.519 23.2055 66.4111 23.0944 66.2835 23.0046C66.1576 22.9132 66.0178 22.8446 65.8641 22.7989C65.7104 22.7532 65.5502 22.7303 65.3834 22.7303C65.0792 22.7303 64.8037 22.8071 64.5568 22.9605C64.3115 23.114 64.1161 23.3402 63.9706 23.6389C63.8267 23.9377 63.7547 24.3043 63.7547 24.7386C63.7547 25.1729 63.8267 25.5394 63.9706 25.8382C64.1161 26.137 64.3115 26.3631 64.5568 26.5166C64.8037 26.6701 65.0792 26.7468 65.3834 26.7468C65.5502 26.7468 65.7104 26.7239 65.8641 26.6782C66.0178 26.6325 66.1576 26.5647 66.2835 26.475C66.4111 26.3835 66.519 26.2717 66.6073 26.1394C66.6972 26.0055 66.7602 25.8521 66.7962 25.679H67.4044C67.3587 25.9353 67.2753 26.1647 67.1543 26.3672C67.0333 26.5696 66.8828 26.7419 66.703 26.8839C66.5231 27.0244 66.3211 27.1313 66.0971 27.2048C65.8747 27.2782 65.6368 27.315 65.3834 27.315C64.955 27.315 64.574 27.2105 64.2404 27.0015C63.9068 26.7925 63.6444 26.4954 63.453 26.11C63.2617 25.7247 63.1661 25.2676 63.1661 24.7386C63.1661 24.2096 63.2617 23.7524 63.453 23.3671C63.6444 22.9818 63.9068 22.6846 64.2404 22.4756C64.574 22.2666 64.955 22.1622 65.3834 22.1622C65.6368 22.1622 65.8747 22.1989 66.0971 22.2724C66.3211 22.3458 66.5231 22.4536 66.703 22.5956C66.8828 22.7361 67.0333 22.9075 67.1543 23.1099C67.2753 23.3108 67.3587 23.5402 67.4044 23.7981Z" fill="white"/>
<path d="M68.3874 27.2464V22.2307H68.9957V24.719H69.0545L71.3111 22.2307H72.1058L69.9964 24.4937L72.1058 27.2464H71.3699L69.6236 24.9149L68.9957 25.6202V27.2464H68.3874Z" fill="white"/>
<path d="M73.5014 22.2307V27.2464H72.8931V22.2307H73.5014Z" fill="white"/>
<path d="M78.7043 22.2307V27.2464H78.1157L75.3784 23.3083H75.3293V27.2464H74.721V22.2307H75.3097L78.0568 26.1786H78.1058V22.2307H78.7043Z" fill="white"/>
<path d="M83.3554 23.7981C83.3014 23.6332 83.2303 23.4855 83.142 23.3548C83.0553 23.2226 82.9515 23.1099 82.8305 23.0169C82.7111 22.9238 82.5754 22.8528 82.4233 22.8038C82.2712 22.7548 82.1045 22.7303 81.923 22.7303C81.6254 22.7303 81.3547 22.8071 81.1111 22.9605C80.8675 23.114 80.6737 23.3402 80.5298 23.6389C80.3859 23.9377 80.3139 24.3043 80.3139 24.7386C80.3139 25.1729 80.3867 25.5394 80.5322 25.8382C80.6778 26.137 80.8748 26.3631 81.1234 26.5166C81.3719 26.6701 81.6515 26.7468 81.9622 26.7468C82.25 26.7468 82.5034 26.6856 82.7226 26.5631C82.9433 26.439 83.115 26.2643 83.2376 26.039C83.3619 25.8121 83.424 25.5451 83.424 25.2382L83.6105 25.2774H82.0996V24.7386H84.0127V25.2774C84.0127 25.6904 83.9244 26.0496 83.7478 26.3549C83.5728 26.6603 83.3308 26.897 83.0218 27.0652C82.7144 27.2317 82.3612 27.315 81.9622 27.315C81.5174 27.315 81.1266 27.2105 80.7898 27.0015C80.4546 26.7925 80.1929 26.4954 80.0049 26.11C79.8185 25.7247 79.7253 25.2676 79.7253 24.7386C79.7253 24.3418 79.7784 23.9851 79.8847 23.6683C79.9926 23.3499 80.1447 23.0789 80.3409 22.8552C80.5371 22.6316 80.7693 22.4601 81.0375 22.3409C81.3057 22.2217 81.6008 22.1622 81.923 22.1622C82.1879 22.1622 82.4348 22.2022 82.6637 22.2822C82.8943 22.3605 83.0995 22.4724 83.2793 22.6177C83.4608 22.7614 83.6121 22.9336 83.7331 23.1344C83.8541 23.3336 83.9375 23.5549 83.9833 23.7981H83.3554Z" fill="white"/>
<path d="M52.8283 33.1717C52.7989 32.9236 52.6795 32.7309 52.4702 32.5938C52.2609 32.4566 52.0042 32.388 51.7 32.388C51.4776 32.388 51.2831 32.424 51.1163 32.4958C50.9511 32.5676 50.8219 32.6664 50.7287 32.7921C50.6372 32.9179 50.5914 33.0607 50.5914 33.2207C50.5914 33.3546 50.6233 33.4697 50.687 33.566C50.7524 33.6607 50.8358 33.7399 50.9372 33.8036C51.0386 33.8656 51.1449 33.9171 51.2561 33.9579C51.3673 33.9971 51.4695 34.0289 51.5627 34.0534L52.0728 34.1906C52.2037 34.2248 52.3492 34.2722 52.5094 34.3326C52.6713 34.393 52.8258 34.4755 52.973 34.58C53.1218 34.6828 53.2444 34.8151 53.3409 34.9767C53.4374 35.1383 53.4856 35.3367 53.4856 35.5718C53.4856 35.8428 53.4145 36.0878 53.2722 36.3065C53.1316 36.5253 52.9256 36.6992 52.6542 36.8282C52.3843 36.9572 52.0565 37.0217 51.6706 37.0217C51.3109 37.0217 50.9994 36.9637 50.7361 36.8478C50.4745 36.7319 50.2684 36.5702 50.118 36.3629C49.9692 36.1555 49.885 35.9147 49.8654 35.6404H50.4933C50.5096 35.8298 50.5734 35.9865 50.6846 36.1106C50.7974 36.2331 50.9397 36.3245 51.1114 36.3849C51.2847 36.4437 51.4711 36.4731 51.6706 36.4731C51.9028 36.4731 52.1113 36.4355 52.2961 36.3604C52.4808 36.2837 52.6272 36.1776 52.7351 36.042C52.843 35.9049 52.897 35.7449 52.897 35.562C52.897 35.3955 52.8504 35.26 52.7572 35.1555C52.664 35.051 52.5413 34.9661 52.3893 34.9008C52.2372 34.8355 52.0728 34.7783 51.8963 34.7293L51.2782 34.553C50.8857 34.4404 50.575 34.2795 50.3461 34.0705C50.1172 33.8616 50.0027 33.5881 50.0027 33.2501C50.0027 32.9693 50.0788 32.7244 50.2308 32.5154C50.3845 32.3048 50.5906 32.1415 50.8489 32.0256C51.1089 31.908 51.3992 31.8493 51.7197 31.8493C52.0434 31.8493 52.3312 31.9072 52.583 32.0231C52.8348 32.1374 53.0343 32.2942 53.1815 32.4934C53.3303 32.6925 53.4088 32.9187 53.417 33.1717H52.8283Z" fill="white"/>
<path d="M54.0541 31.9178H54.7506L56.1438 34.2591H56.2027L57.5959 31.9178H58.2924L56.4774 34.8665V36.9335H55.8691V34.8665L54.0541 31.9178Z" fill="white"/>
<path d="M61.8263 33.1717C61.7968 32.9236 61.6775 32.7309 61.4682 32.5938C61.2589 32.4566 61.0021 32.388 60.698 32.388C60.4756 32.388 60.281 32.424 60.1142 32.4958C59.9491 32.5676 59.8199 32.6664 59.7267 32.7921C59.6351 32.9179 59.5893 33.0607 59.5893 33.2207C59.5893 33.3546 59.6212 33.4697 59.685 33.566C59.7504 33.6607 59.8338 33.7399 59.9352 33.8036C60.0366 33.8656 60.1428 33.9171 60.254 33.9579C60.3652 33.9971 60.4674 34.0289 60.5606 34.0534L61.0708 34.1906C61.2016 34.2248 61.3471 34.2722 61.5074 34.3326C61.6693 34.393 61.8238 34.4755 61.971 34.58C62.1198 34.6828 62.2424 34.8151 62.3389 34.9767C62.4354 35.1383 62.4836 35.3367 62.4836 35.5718C62.4836 35.8428 62.4125 36.0878 62.2702 36.3065C62.1296 36.5253 61.9235 36.6992 61.6521 36.8282C61.3823 36.9572 61.0545 37.0217 60.6686 37.0217C60.3088 37.0217 59.9973 36.9637 59.7341 36.8478C59.4724 36.7319 59.2664 36.5702 59.116 36.3629C58.9672 36.1555 58.8829 35.9147 58.8633 35.6404H59.4912C59.5076 35.8298 59.5713 35.9865 59.6825 36.1106C59.7954 36.2331 59.9376 36.3245 60.1093 36.3849C60.2826 36.4437 60.4691 36.4731 60.6686 36.4731C60.9007 36.4731 61.1092 36.4355 61.294 36.3604C61.4788 36.2837 61.6251 36.1776 61.733 36.042C61.841 35.9049 61.8949 35.7449 61.8949 35.562C61.8949 35.3955 61.8483 35.26 61.7551 35.1555C61.6619 35.051 61.5393 34.9661 61.3872 34.9008C61.2351 34.8355 61.0708 34.7783 60.8942 34.7293L60.2761 34.553C59.8837 34.4404 59.573 34.2795 59.3441 34.0705C59.1151 33.8616 59.0007 33.5881 59.0007 33.2501C59.0007 32.9693 59.0767 32.7244 59.2288 32.5154C59.3825 32.3048 59.5885 32.1415 59.8469 32.0256C60.1069 31.908 60.3971 31.8493 60.7176 31.8493C61.0414 31.8493 61.3292 31.9072 61.581 32.0231C61.8328 32.1374 62.0323 32.2942 62.1795 32.4934C62.3283 32.6925 62.4067 32.9187 62.4149 33.1717H61.8263Z" fill="white"/>
<path d="M63.209 32.4566V31.9178H66.9764V32.4566H65.3969V36.9335H64.7886V32.4566H63.209Z" fill="white"/>
<path d="M67.9152 36.9335V31.9178H70.9468V32.4566H68.5235V34.1514H70.7899V34.6902H68.5235V36.3947H70.9861V36.9335H67.9152Z" fill="white"/>
<path d="M72.0432 31.9178H72.7692L74.4764 36.0812H74.5352L76.2424 31.9178H76.9684V36.9335H76.3993V33.1228H76.3503L74.7805 36.9335H74.2311L72.6613 33.1228H72.6123V36.9335H72.0432V31.9178Z" fill="white"/>
</svg>
